<svg width="321" height="321" viewBox="0 0 321 321" fill="none" xmlns="http://www.w3.org/2000/svg">
<path fill-rule="evenodd" clip-rule="evenodd" d="M143.36 231.45C82.5213 228.016 35.7686 207.62 35.6748 182.961V214.89C35.6748 239.314 81.4464 259.571 141.375 263.336L143.36 231.45ZM201.926 261.385C251.648 254.827 287.44 236.488 287.44 214.89V182.886L287.439 182.886C287.439 201.523 260.789 217.734 221.534 226.042C217.024 234.428 210.488 246.21 201.926 261.385Z" fill="#2C2C2C"/>
<path fill-rule="evenodd" clip-rule="evenodd" d="M94.1223 175.259C58.9858 166.553 35.6709 151.244 35.6709 133.813V165.816C35.6709 179.928 50.9516 192.649 75.4146 201.601C75.8792 200.463 76.5012 199.347 77.2804 198.252C83.8104 189.256 89.4244 181.592 94.1223 175.259ZM231.493 206.624C265.226 197.821 287.436 182.83 287.436 165.816V133.813C287.436 148.527 270.824 161.728 244.512 170.723C244.838 173.041 244.532 175.497 243.594 178.09C240.228 187.325 236.194 196.836 231.493 206.624Z" fill="#2C2C2C"/>
<path fill-rule="evenodd" clip-rule="evenodd" d="M287.44 84.8118V116.743C287.44 141.777 239.352 162.433 177.221 165.439L180.035 120.469C230.145 117.493 268.235 102.629 268.235 84.7396C268.235 64.7076 231.964 46.3348 161.556 46.3348C91.1468 46.3348 54.8756 64.7076 54.8756 84.7396C54.8756 101.02 86.423 114.795 129.867 119.384C117.162 142.026 109.164 155.478 105.875 159.74C105.649 160.028 105.417 160.325 105.179 160.63C63.9632 152.569 35.6753 135.943 35.6753 116.743V84.7386L35.6754 84.7386C35.6754 57.6364 92.0349 35.6658 161.558 35.6658C231.081 35.6658 287.44 57.6364 287.44 84.7386L287.44 84.8118Z" fill="#2C2C2C"/>
<path d="M165.126 81.4586C166.77 78.449 171.361 79.8048 171.149 83.2273L165.156 179.946C191.877 179.031 209.757 176.926 229.176 170.82C231.68 170.033 234.029 172.333 233.131 174.799C230.276 182.634 224.327 197.582 214.518 216.123C203.212 237.496 170.521 294.578 156.266 319.386C154.581 322.317 150.119 320.94 150.328 317.565L156.376 219.959C131.799 219.251 110.895 217.279 88.9825 210.791C86.8967 210.174 86.071 207.691 87.3478 205.93C93.3152 197.699 108.138 177.326 115.662 167.631C122.926 158.27 151.728 105.995 165.126 81.4586Z" fill="#F97316"/>
</svg>
